<?xml version="1.0" encoding="UTF-8"?>
<svg id="Layer_1" xmlns="http://www.w3.org/2000/svg" xmlns:xlink="http://www.w3.org/1999/xlink" version="1.1" viewBox="0 0 256 256">
  <!-- Generator: Adobe Illustrator 29.4.0, SVG Export Plug-In . SVG Version: 2.1.0 Build 152)  -->
  <defs>
    <symbol id="trash_x5F_can" viewBox="0 0 22.148 25.756">
      <g>
        <path d="M16.714,25.756H5.434c-1.343,0-2.457-1.05-2.535-2.391L1.774,4.166c-.014-.236.07-.467.232-.639.162-.172.388-.269.625-.269h16.885c.236,0,.462.098.625.269.162.172.246.403.233.639l-1.124,19.199c-.079,1.34-1.192,2.391-2.535,2.391ZM3.541,4.974l1.071,18.29c.025.434.386.774.821.774h11.281c.435,0,.795-.34.821-.774l1.071-18.291H3.541Z" fill="#bf2e2e"/>
        <path d="M21.289,4.974H.859c-.474,0-.859-.384-.859-.859s.384-.859.859-.859h20.431c.474,0,.859.384.859.859s-.384.859-.859.859Z" fill="#bf2e2e"/>
        <path d="M15.003,4.974h-7.858c-.474,0-.859-.384-.859-.859v-1.6c0-1.387,1.128-2.515,2.515-2.515h4.544c1.387,0,2.515,1.128,2.515,2.515v1.6c0,.474-.384.859-.859.859ZM8.003,3.257h6.14v-.742c0-.44-.358-.798-.798-.798h-4.544c-.44,0-.798.358-.798.798v.742h0Z" fill="#bf2e2e"/>
        <path d="M14.889,21.461c-.017,0-.034,0-.051-.001-.473-.028-.834-.434-.807-.907l.708-12.089c.028-.474.432-.839.907-.807.473.028.834.434.807.907l-.708,12.089c-.027.456-.405.808-.856.808Z" fill="#bf2e2e"/>
        <path d="M7.259,21.461c-.451,0-.829-.352-.856-.808l-.708-12.089c-.028-.473.333-.879.807-.907.471-.032.879.333.907.807l.708,12.089c.028.473-.333.88-.807.907-.017,0-.034.001-.051.001Z" fill="#bf2e2e"/>
        <path d="M11.074,21.461c-.474,0-.859-.384-.859-.859v-12.089c0-.474.384-.859.859-.859s.859.384.859.859v12.089c0,.474-.384.859-.859.859Z" fill="#bf2e2e"/>
      </g>
    </symbol>
  </defs>
  <use width="22.148" height="25.756" transform="translate(122.159 73.346)" xlink:href="#trash_x5F_can"/>
</svg>